<?xml version="1.0" encoding="UTF-8" standalone="no"?>
<!DOCTYPE svg PUBLIC "-//W3C//DTD SVG 20010904//EN"
              "http://www.w3.org/TR/2001/REC-SVG-20010904/DTD/svg10.dtd">

<svg xmlns="http://www.w3.org/2000/svg"
     width="2.66667in" height="2.66667in"
     viewBox="0 0 192 192">
  <path id="パス #1"
        fill="none" stroke="black" stroke-width="1"
        d="M 97.02,133.08
           C 92.91,132.41 88.64,132.00 84.25,132.00
             71.48,132.00 61.64,136.83 61.64,143.66
             61.64,148.34 66.44,152.36 76.94,152.36
             94.09,152.36 96.89,146.06 97.02,133.08 Z
           M 81.59,52.95
           C 84.52,52.28 87.58,51.62 90.77,51.62
             97.16,51.62 105.00,55.61 105.00,58.44
             105.00,61.42 103.53,62.50 102.61,66.56
             101.67,70.36 101.14,77.27 100.88,83.62
             102.61,83.89 104.34,83.89 105.27,83.89
             110.72,83.89 118.17,82.67 122.69,81.31
             126.69,80.09 128.94,78.61 131.06,78.61
             136.25,78.61 137.86,80.23 137.86,82.53
             137.86,84.02 136.39,85.48 133.06,86.55
             128.67,87.88 117.50,90.00 109.25,90.00
             106.47,90.00 103.41,88.94 100.88,87.75
             100.88,94.16 101.41,112.91 102.34,123.61
             102.47,125.22 102.61,126.69 102.73,128.02
             109.66,129.34 115.91,131.47 121.77,134.16
             129.73,137.77 141.31,144.73 141.31,151.16
             141.31,153.42 139.98,154.48 137.98,154.48
             134.39,154.48 130.41,147.27 117.64,140.17
             113.38,137.77 108.59,135.75 103.53,134.42
             103.67,136.30 103.81,138.30 103.81,140.58
             103.81,151.95 94.77,159.00 79.59,159.00
             66.03,159.00 56.72,153.16 56.72,144.06
             56.72,132.00 71.89,126.69 87.31,126.69
             90.64,126.69 93.83,126.83 96.75,127.22
             96.36,117.31 95.03,96.70 95.03,87.34
             95.03,78.20 94.89,64.41 94.62,61.97
             94.36,58.84 93.56,57.91 91.03,57.09
             88.52,56.42 85.05,56.14 81.86,56.00
             81.86,56.00 81.59,52.95 81.59,52.95 Z" />
</svg>
